<svg xmlns="http://www.w3.org/2000/svg" viewBox="0 0 512 512" width="512" height="512">
  <defs>
    <!-- Premium gradients -->
    <linearGradient id="docGrad" x1="0%" y1="0%" x2="100%" y2="100%">
      <stop offset="0%" stop-color="#3B82F6" />
      <stop offset="100%" stop-color="#8B5CF6" />
    </linearGradient>
    <linearGradient id="capGrad" x1="0%" y1="0%" x2="100%" y2="100%">
      <stop offset="0%" stop-color="#1E293B" />
      <stop offset="100%" stop-color="#0F172A" />
    </linearGradient>
  </defs>

  <!-- 1. The Scientific Paper Document -->
  <g transform="translate(64, 96) scale(24)" fill="url(#docGrad)">
    <path d="M14 14V4.5L9.5 0H4a2 2 0 0 0-2 2v12a2 2 0 0 0 2 2h8a2 2 0 0 0 2-2M9.5 3A1.5 1.5 0 0 0 11 4.5h2V14a1 1 0 0 1-1 1H4a1 1 0 0 1-1-1V2a1 1 0 0 1 1-1h5.5z"/>
    <path d="M4.603 14.087a.8.8 0 0 1-.438-.42c-.195-.388-.13-.776.08-1.102.198-.307.526-.568.897-.787a7.7 7.7 0 0 1 1.482-.645 20 20 0 0 0 1.062-2.227 7.3 7.3 0 0 1-.43-1.295c-.086-.4-.119-.796-.046-1.136.075-.354.274-.672.65-.823.192-.077.4-.12.602-.077a.7.7 0 0 1 .477.365c.088.164.12.356.127.538.007.188-.012.396-.047.614-.084.51-.27 1.134-.52 1.794a11 11 0 0 0 .98 1.686 5.8 5.8 0 0 1 1.334.05c.364.066.734.195.96.465.12.144.193.32.2.518.007.192-.047.382-.138.563a1.04 1.04 0 0 1-.354.416.86.86 0 0 1-.51.138c-.331-.014-.654-.196-.933-.417a5.7 5.7 0 0 1-.911-.95 11.7 11.7 0 0 0-1.997.406 11.3 11.3 0 0 1-1.02 1.51c-.292.35-.609.656-.927.787a.8.8 0 0 1-.58.029m1.379-1.901q-.25.115-.459.238c-.328.194-.541.383-.647.547-.094.145-.096.25-.04.361q.016.032.026.044l.035-.012c.137-.056.355-.235.635-.572a8 8 0 0 0 .45-.606m1.64-1.33a13 13 0 0 1 1.01-.193 12 12 0 0 1-.51-.858 21 21 0 0 1-.5 1.05zm2.446.45q.226.245.435.41c.24.19.407.253.498.256a.1.1 0 0 0 .07-.015.3.3 0 0 0 .094-.125.44.44 0 0 0 .059-.2.1.1 0 0 0-.026-.063c-.052-.062-.2-.152-.518-.209a4 4 0 0 0-.612-.053zM8.078 7.8a7 7 0 0 0 .2-.828q.046-.282.038-.465a.6.6 0 0 0-.032-.198.5.5 0 0 0-.145.04c-.087.035-.158.106-.196.283-.04.192-.03.469.046.822q.036.167.09.346z"/>
  </g>

  <!-- 2. The Academic Cap sitting on top -->
  <g transform="translate(144, 40) scale(14)" fill="url(#capGrad)">
    <path d="M4.176 9.032a.5.5 0 0 0-.656.327l-.5 1.7a.5.5 0 0 0 .294.605l4.5 1.8a.5.5 0 0 0 .372 0l4.5-1.8a.5.5 0 0 0 .294-.605l-.5-1.7a.5.5 0 0 0-.656-.327L8 10.466zm-.068 1.873.22-.748 3.496 1.311a.5.5 0 0 0 .352 0l3.496-1.311.22.748L8 12.46z"/>
    <path d="M8.211 2.047a.5.5 0 0 0-.422 0l-7.5 3.5a.5.5 0 0 0 .025.917l7.5 3a.5.5 0 0 0 .372 0L14 7.14V13a1 1 0 0 0-1 1v2h3v-2a1 1 0 0 0-1-1V6.739l.686-.275a.5.5 0 0 0 .025-.917zM8 8.46 1.758 5.965 8 3.052l6.242 2.913z"/>
  </g>
</svg>
